<?xml version="1.0" standalone="no"?>
<!DOCTYPE svg PUBLIC "-//W3C//DTD SVG 20010904//EN"
 "http://www.w3.org/TR/2001/REC-SVG-20010904/DTD/svg10.dtd">
<svg version="1.0" xmlns="http://www.w3.org/2000/svg"
 width="700.000000pt" height="700.000000pt" viewBox="0 0 700.000000 700.000000"
 preserveAspectRatio="xMidYMid meet">
<metadata>
Created by potrace 1.14, written by Peter Selinger 2001-2017
</metadata>
<g transform="translate(0.000000,700.000000) scale(0.100000,-0.100000)"
fill="#000000" stroke="none">
<path d="M3462 6336 c-4 -6 -7 -531 -8 -1166 -1 -1221 -1 -1214 -48 -1345 -80
-221 -232 -361 -443 -409 -78 -18 -257 -14 -331 7 -125 36 -247 122 -326 230
-66 91 -120 248 -125 367 -1 13 -31 15 -208 15 l-208 0 0 -30 c-1 -17 5 -61
12 -100 96 -529 494 -855 1041 -855 53 0 126 5 161 10 35 6 65 9 67 7 2 -1 -5
-45 -16 -97 -19 -93 -23 -123 -38 -266 -9 -84 -7 -728 2 -799 3 -27 9 -70 12
-95 3 -25 7 -52 9 -60 2 -8 7 -34 10 -58 3 -23 12 -60 20 -82 8 -22 12 -40 10
-40 -2 0 12 -46 31 -102 145 -417 391 -671 744 -772 105 -30 167 -38 293 -41
88 -1 129 2 262 21 65 9 214 63 293 105 285 152 471 425 547 803 9 43 13 81
10 85 -4 3 -96 6 -205 7 l-199 1 -6 -26 c-4 -14 -9 -37 -11 -51 -57 -323 -250
-546 -517 -598 -42 -8 -274 -8 -310 0 -212 50 -377 203 -470 437 -35 86 -79
244 -91 326 -3 22 -9 63 -13 90 -10 66 -10 853 -1 930 37 294 105 483 231 637
138 169 303 242 532 233 297 -11 496 -169 599 -477 14 -40 27 -84 29 -98 3
-14 8 -37 11 -52 3 -16 8 -38 11 -51 l4 -23 203 0 c196 1 203 2 202 21 -5 123
-64 326 -135 468 -122 242 -344 430 -593 502 -182 53 -406 64 -601 29 l-30 -5
0 1188 0 1188 -203 1 c-135 0 -205 -3 -210 -10z"/>
</g>
</svg>
